<svg width="309" height="35" viewBox="0 0 309 35" fill="none" xmlns="http://www.w3.org/2000/svg">
<path d="M16.556 34.504C13.56 34.504 10.844 33.86 8.408 32.572C6 31.256 4.096 29.45 2.696 27.154C1.324 24.83 0.638 22.212 0.638 19.3C0.638 16.388 1.324 13.784 2.696 11.488C4.096 9.164 6 7.358 8.408 6.07C10.844 4.754 13.574 4.096 16.598 4.096C19.146 4.096 21.442 4.544 23.486 5.44C25.558 6.336 27.294 7.624 28.694 9.304L24.326 13.336C22.338 11.04 19.874 9.892 16.934 9.892C15.114 9.892 13.49 10.298 12.062 11.11C10.634 11.894 9.514 13 8.702 14.428C7.918 15.856 7.526 17.48 7.526 19.3C7.526 21.12 7.918 22.744 8.702 24.172C9.514 25.6 10.634 26.72 12.062 27.532C13.49 28.316 15.114 28.708 16.934 28.708C19.874 28.708 22.338 27.546 24.326 25.222L28.694 29.254C27.294 30.962 25.558 32.264 23.486 33.16C21.414 34.056 19.104 34.504 16.556 34.504ZM42.7994 34.336C40.4194 34.336 38.2774 33.846 36.3734 32.866C34.4974 31.858 33.0274 30.472 31.9634 28.708C30.8994 26.944 30.3674 24.942 30.3674 22.702C30.3674 20.462 30.8994 18.46 31.9634 16.696C33.0274 14.932 34.4974 13.56 36.3734 12.58C38.2774 11.572 40.4194 11.068 42.7994 11.068C45.1794 11.068 47.3074 11.572 49.1834 12.58C51.0594 13.56 52.5294 14.932 53.5934 16.696C54.6574 18.46 55.1894 20.462 55.1894 22.702C55.1894 24.942 54.6574 26.944 53.5934 28.708C52.5294 30.472 51.0594 31.858 49.1834 32.866C47.3074 33.846 45.1794 34.336 42.7994 34.336ZM42.7994 28.96C44.4794 28.96 45.8514 28.4 46.9154 27.28C48.0074 26.132 48.5534 24.606 48.5534 22.702C48.5534 20.798 48.0074 19.286 46.9154 18.166C45.8514 17.018 44.4794 16.444 42.7994 16.444C41.1194 16.444 39.7334 17.018 38.6414 18.166C37.5494 19.286 37.0034 20.798 37.0034 22.702C37.0034 24.606 37.5494 26.132 38.6414 27.28C39.7334 28.4 41.1194 28.96 42.7994 28.96ZM67.1709 34.336C65.2949 34.336 63.4609 34.112 61.6689 33.664C59.8769 33.188 58.4489 32.6 57.3849 31.9L59.5689 27.196C60.5769 27.84 61.7949 28.372 63.2229 28.792C64.6509 29.184 66.0509 29.38 67.4229 29.38C70.1949 29.38 71.5809 28.694 71.5809 27.322C71.5809 26.678 71.2029 26.216 70.4469 25.936C69.6909 25.656 68.5289 25.418 66.9609 25.222C65.1129 24.942 63.5869 24.62 62.3829 24.256C61.1789 23.892 60.1289 23.248 59.2329 22.324C58.3649 21.4 57.9309 20.084 57.9309 18.376C57.9309 16.948 58.3369 15.688 59.1489 14.596C59.9889 13.476 61.1929 12.608 62.7609 11.992C64.3569 11.376 66.2329 11.068 68.3889 11.068C69.9849 11.068 71.5669 11.25 73.1349 11.614C74.7309 11.95 76.0469 12.426 77.0829 13.042L74.8989 17.704C72.9109 16.584 70.7409 16.024 68.3889 16.024C66.9889 16.024 65.9389 16.22 65.2389 16.612C64.5389 17.004 64.1889 17.508 64.1889 18.124C64.1889 18.824 64.5669 19.314 65.3229 19.594C66.0789 19.874 67.2829 20.14 68.9349 20.392C70.7829 20.7 72.2949 21.036 73.4709 21.4C74.6469 21.736 75.6689 22.366 76.5369 23.29C77.4049 24.214 77.8389 25.502 77.8389 27.154C77.8389 28.554 77.4189 29.8 76.5789 30.892C75.7389 31.984 74.5069 32.838 72.8829 33.454C71.2869 34.042 69.3829 34.336 67.1709 34.336ZM110.819 11.068C113.647 11.068 115.887 11.908 117.539 13.588C119.219 15.24 120.059 17.732 120.059 21.064V34H113.507V22.072C113.507 20.28 113.129 18.95 112.373 18.082C111.645 17.186 110.595 16.738 109.223 16.738C107.683 16.738 106.465 17.242 105.569 18.25C104.673 19.23 104.225 20.7 104.225 22.66V34H97.6734V22.072C97.6734 18.516 96.2454 16.738 93.3894 16.738C91.8774 16.738 90.6734 17.242 89.7774 18.25C88.8814 19.23 88.4334 20.7 88.4334 22.66V34H81.8814V11.404H88.1394V14.008C88.9794 13.056 90.0014 12.328 91.2054 11.824C92.4374 11.32 93.7814 11.068 95.2374 11.068C96.8334 11.068 98.2754 11.39 99.5634 12.034C100.851 12.65 101.887 13.56 102.671 14.764C103.595 13.588 104.757 12.678 106.157 12.034C107.585 11.39 109.139 11.068 110.819 11.068ZM137.56 29.086C138.736 29.086 139.772 28.918 140.668 28.582C141.592 28.218 142.446 27.658 143.23 26.902L146.716 30.682C144.588 33.118 141.48 34.336 137.392 34.336C134.844 34.336 132.59 33.846 130.63 32.866C128.67 31.858 127.158 30.472 126.094 28.708C125.03 26.944 124.498 24.942 124.498 22.702C124.498 20.49 125.016 18.502 126.052 16.738C127.116 14.946 128.558 13.56 130.378 12.58C132.226 11.572 134.298 11.068 136.594 11.068C138.75 11.068 140.71 11.53 142.474 12.454C144.238 13.35 145.638 14.666 146.674 16.402C147.738 18.11 148.27 20.14 148.27 22.492L131.554 25.726C132.03 26.846 132.772 27.686 133.78 28.246C134.816 28.806 136.076 29.086 137.56 29.086ZM136.594 16.024C134.942 16.024 133.598 16.556 132.562 17.62C131.526 18.684 130.98 20.154 130.924 22.03L141.928 19.888C141.62 18.712 140.99 17.774 140.038 17.074C139.086 16.374 137.938 16.024 136.594 16.024ZM166.282 32.908C165.638 33.384 164.84 33.748 163.888 34C162.964 34.224 161.998 34.336 160.99 34.336C158.274 34.336 156.188 33.65 154.732 32.278C153.276 30.906 152.548 28.89 152.548 26.23V6.406H159.1V11.908H164.686V16.948H159.1V26.146C159.1 27.098 159.338 27.84 159.814 28.372C160.29 28.876 160.976 29.128 161.872 29.128C162.88 29.128 163.776 28.848 164.56 28.288L166.282 32.908ZM169.983 11.404H176.535V34H169.983V11.404ZM173.259 8.254C172.055 8.254 171.075 7.904 170.319 7.204C169.563 6.504 169.185 5.636 169.185 4.6C169.185 3.564 169.563 2.696 170.319 1.996C171.075 1.296 172.055 0.945997 173.259 0.945997C174.463 0.945997 175.443 1.282 176.199 1.954C176.955 2.626 177.333 3.466 177.333 4.474C177.333 5.566 176.955 6.476 176.199 7.204C175.443 7.904 174.463 8.254 173.259 8.254ZM193.536 34.336C191.128 34.336 188.958 33.846 187.026 32.866C185.122 31.858 183.624 30.472 182.532 28.708C181.468 26.944 180.936 24.942 180.936 22.702C180.936 20.462 181.468 18.46 182.532 16.696C183.624 14.932 185.122 13.56 187.026 12.58C188.958 11.572 191.128 11.068 193.536 11.068C195.916 11.068 197.988 11.572 199.752 12.58C201.544 13.56 202.846 14.974 203.658 16.822L198.576 19.552C197.4 17.48 195.706 16.444 193.494 16.444C191.786 16.444 190.372 17.004 189.252 18.124C188.132 19.244 187.572 20.77 187.572 22.702C187.572 24.634 188.132 26.16 189.252 27.28C190.372 28.4 191.786 28.96 193.494 28.96C195.734 28.96 197.428 27.924 198.576 25.852L203.658 28.624C202.846 30.416 201.544 31.816 199.752 32.824C197.988 33.832 195.916 34.336 193.536 34.336ZM215.032 34.336C213.156 34.336 211.322 34.112 209.53 33.664C207.738 33.188 206.31 32.6 205.246 31.9L207.43 27.196C208.438 27.84 209.656 28.372 211.084 28.792C212.512 29.184 213.912 29.38 215.284 29.38C218.056 29.38 219.442 28.694 219.442 27.322C219.442 26.678 219.064 26.216 218.308 25.936C217.552 25.656 216.39 25.418 214.822 25.222C212.974 24.942 211.448 24.62 210.244 24.256C209.04 23.892 207.99 23.248 207.094 22.324C206.226 21.4 205.792 20.084 205.792 18.376C205.792 16.948 206.198 15.688 207.01 14.596C207.85 13.476 209.054 12.608 210.622 11.992C212.218 11.376 214.094 11.068 216.25 11.068C217.846 11.068 219.428 11.25 220.996 11.614C222.592 11.95 223.908 12.426 224.944 13.042L222.76 17.704C220.772 16.584 218.602 16.024 216.25 16.024C214.85 16.024 213.8 16.22 213.1 16.612C212.4 17.004 212.05 17.508 212.05 18.124C212.05 18.824 212.428 19.314 213.184 19.594C213.94 19.874 215.144 20.14 216.796 20.392C218.644 20.7 220.156 21.036 221.332 21.4C222.508 21.736 223.53 22.366 224.398 23.29C225.266 24.214 225.7 25.502 225.7 27.154C225.7 28.554 225.28 29.8 224.44 30.892C223.6 31.984 222.368 32.838 220.744 33.454C219.148 34.042 217.244 34.336 215.032 34.336ZM232.221 34.336C231.073 34.336 230.107 33.944 229.323 33.16C228.539 32.376 228.147 31.396 228.147 30.22C228.147 29.016 228.539 28.05 229.323 27.322C230.107 26.566 231.073 26.188 232.221 26.188C233.369 26.188 234.335 26.566 235.119 27.322C235.903 28.05 236.295 29.016 236.295 30.22C236.295 31.396 235.903 32.376 235.119 33.16C234.335 33.944 233.369 34.336 232.221 34.336ZM248.841 34.336C246.293 34.336 244.305 33.664 242.877 32.32C241.449 30.948 240.735 29.016 240.735 26.524V2.836H247.287V26.146C247.287 27.098 247.525 27.84 248.001 28.372C248.505 28.876 249.205 29.128 250.101 29.128C250.437 29.128 250.773 29.086 251.109 29.002C251.473 28.918 251.753 28.82 251.949 28.708L252.243 33.79C251.151 34.154 250.017 34.336 248.841 34.336ZM277.981 11.404V34H271.723V31.396C270.099 33.356 267.747 34.336 264.667 34.336C262.539 34.336 260.607 33.86 258.871 32.908C257.163 31.956 255.819 30.598 254.839 28.834C253.859 27.07 253.369 25.026 253.369 22.702C253.369 20.378 253.859 18.334 254.839 16.57C255.819 14.806 257.163 13.448 258.871 12.496C260.607 11.544 262.539 11.068 264.667 11.068C267.551 11.068 269.805 11.978 271.429 13.798V11.404H277.981ZM265.801 28.96C267.453 28.96 268.825 28.4 269.917 27.28C271.009 26.132 271.555 24.606 271.555 22.702C271.555 20.798 271.009 19.286 269.917 18.166C268.825 17.018 267.453 16.444 265.801 16.444C264.121 16.444 262.735 17.018 261.643 18.166C260.551 19.286 260.005 20.798 260.005 22.702C260.005 24.606 260.551 26.132 261.643 27.28C262.735 28.4 264.121 28.96 265.801 28.96ZM297.403 11.068C299.503 11.068 301.407 11.558 303.115 12.538C304.851 13.49 306.209 14.848 307.189 16.612C308.169 18.348 308.659 20.378 308.659 22.702C308.659 25.026 308.169 27.07 307.189 28.834C306.209 30.57 304.851 31.928 303.115 32.908C301.407 33.86 299.503 34.336 297.403 34.336C294.295 34.336 291.929 33.356 290.305 31.396V34H284.047V2.836H290.599V13.798C292.251 11.978 294.519 11.068 297.403 11.068ZM296.269 28.96C297.949 28.96 299.321 28.4 300.385 27.28C301.477 26.132 302.023 24.606 302.023 22.702C302.023 20.798 301.477 19.286 300.385 18.166C299.321 17.018 297.949 16.444 296.269 16.444C294.589 16.444 293.203 17.018 292.111 18.166C291.047 19.286 290.515 20.798 290.515 22.702C290.515 24.606 291.047 26.132 292.111 27.28C293.203 28.4 294.589 28.96 296.269 28.96Z" fill="#265B35"/>
</svg>
